<?xml version="1.0" encoding="utf-8"?>
<!-- Generator: Adobe Illustrator 27.6.1, SVG Export Plug-In . SVG Version: 6.00 Build 0)  -->
<svg version="1.1" id="Layer_1" xmlns="http://www.w3.org/2000/svg" xmlns:xlink="http://www.w3.org/1999/xlink" x="0px" y="0px"
	 viewBox="0 0 2500 676" style="enable-background:new 0 0 2500 676;" xml:space="preserve">
<style type="text/css">
	.st0{fill:#FFFFFF;}
	.st1{fill:#FF4F00;}
</style>
<path class="st0" d="M589.1,463.4l-0.4-1.1l221.6-202.9v-97.7H454.8v97.7h212.3l0.3,0.9l-219.4,203v97.7h365.8v-97.7L589.1,463.4
	L589.1,463.4z M1032.1,152.4c-41,0-74.4,6.2-100.2,18.6c-24.1,10.8-44.3,28.5-58.2,51c-13.2,22.6-21.6,47.7-24.4,73.7l107.9,15.2
	c3.9-23,11.7-39.3,23.4-48.9c13.3-10,29.7-15.1,46.4-14.3c21.9,0,37.8,5.8,47.6,17.6c9.8,11.7,14.8,27.9,14.8,49.3v10.7H985.6
	c-52.8,0-90.7,11.7-113.8,35.1c-23.1,23.4-34.6,54.3-34.5,92.7c0,39.3,11.5,68.6,34.5,87.8c23,19.2,52,28.7,86.8,28.6
	c43.3,0,76.6-14.9,99.8-44.7c13.8-18.3,23.6-39.2,28.9-61.5h3.9l14.9,97.7h97.7V313.4c0-51.1-13.5-90.8-40.4-118.9
	C1136.5,166.5,1092.7,152.4,1032.1,152.4L1032.1,152.4z M1066.3,457.5c-15.5,12.9-35.8,19.4-61.1,19.4c-20.8,0-35.3-3.6-43.4-10.9
	c-8-7-12.5-17.2-12.2-27.8c-0.5-10,3.2-19.8,10.1-27c7.5-7,17.5-10.7,27.8-10.1h102v6.7C1089.9,427.1,1081.4,445.4,1066.3,457.5
	L1066.3,457.5z M1794.9,161.7h-115.5v399.5h115.5V161.7z M2476.7,161.7c-32.6,0-58.3,11.5-77.1,34.5c-13.5,16.5-23.8,41-30.8,73.3
	h-3.4l-15.1-107.9h-98.6v399.4h115.5V356.3c0-25.8,6-45.6,18.1-59.4c12.1-13.8,34.4-20.7,67-20.7h43.8V161.7H2476.7z M2137,174.8
	c-27-16-61-24-102-24c-64.6,0-115.2,18.4-151.7,55.2c-36.5,36.8-54.8,87.5-54.8,152.2c-0.9,39.1,7.6,77.8,24.9,112.9
	c15.8,31.3,40.4,57.2,70.8,74.6c30.6,17.7,67,26.5,109.2,26.6c36.5,0,67-5.6,91.4-16.9c23-10.1,43-25.9,58.2-45.9
	c14.4-19.7,25.1-41.8,31.6-65.3l-99.5-27.9c-4.2,15.3-12.3,29.2-23.4,40.5c-11.2,11.2-30.1,16.9-56.5,16.9c-31.4,0-54.8-9-70.2-27
	c-11.2-13-18.2-31.5-21.3-55.6h272.4c1.1-11.2,1.7-20.7,1.7-28.3v-24.9c0.7-33.4-6.2-66.5-20.2-96.9
	C2184.6,213.3,2163.4,190.2,2137,174.8L2137,174.8z M2031.7,246c46.8,0,73.4,23,79.6,69.1h-165.6c2.6-15.4,9-29.9,18.6-42.2
	C1979.5,254.9,2001.9,246,2031.7,246z M1738.4,0.7c-17.6-0.6-34.6,5.9-47.2,18.1c-12.5,12.3-19.2,29.3-18.6,46.8
	c-0.6,17.6,6.1,34.7,18.6,47.2c12.5,12.5,29.6,19.2,47.2,18.5c17.5,0.7,34.5-6.1,46.8-18.6c12.2-12.6,18.7-29.6,18.1-47.2
	c0.8-17.4-5.8-34.4-18.1-46.8C1772.9,6.6,1755.9,0,1738.4,0.7L1738.4,0.7z M1499.9,150.8c-39.3,0-70.9,12.3-94.8,37
	c-17.7,18.3-30.6,45.6-38.9,81.9h-3.7l-15.1-107.9h-98.6V676h115.5V464.3h4.2c3.5,14.1,8.5,27.8,14.8,41
	c9.8,21.4,25.8,39.3,45.9,51.4c20.9,11.4,44.4,17.1,68.2,16.4c48.3,0,85.1-18.8,110.4-56.5c25.3-37.7,37.9-90.2,37.9-157.6
	c0-65.1-12.2-116.1-36.7-152.9C1584.6,169.2,1548.2,150.8,1499.9,150.8L1499.9,150.8z M1511.6,440.3c-13.5,19.5-34.5,29.3-63.2,29.3
	c-24,1.1-47-9.4-61.9-28.3c-15-18.8-22.4-44.5-22.4-77.1v-7.6c0-33.1,7.4-58.5,22.4-76.1c14.9-17.6,35.5-26.3,61.9-26.1
	c29.2,0,50.4,9.3,63.6,27.8c13.2,18.5,19.8,44.4,19.8,77.5c0.1,34.3-6.6,61.1-20.1,80.5L1511.6,440.3z"/>
<path class="st1" d="M403.5,463.4H4v97.9h399.5V463.4z"/>
</svg>
